<svg xmlns="http://www.w3.org/2000/svg">
    <symbol id="home" width="24" height="24" viewBox="0 0 24 24" fill="none">
        <path
            d="M9.06165 4.82633L3.23911 9.92134C2.7398 10.3583 3.07458 11.1343 3.76238 11.1343C4.18259 11.1343 4.52324 11.4489 4.52324 11.8371V15.0806C4.52324 17.871 4.52324 19.2662 5.46176 20.1331C6.40029 21 7.91082 21 10.9319 21H13.0681C16.0892 21 17.5997 21 18.5382 20.1331C19.4768 19.2662 19.4768 17.871 19.4768 15.0806V11.8371C19.4768 11.4489 19.8174 11.1343 20.2376 11.1343C20.9254 11.1343 21.2602 10.3583 20.7609 9.92134L14.9383 4.82633C13.5469 3.60878 12.8512 3 12 3C11.1488 3 10.4531 3.60878 9.06165 4.82633Z"
            stroke="#fff" stroke-width="1.5" stroke-linecap="round" stroke-linejoin="round" />
        <path d="M12 16H12.009" stroke="#fff" stroke-width="2" stroke-linecap="round"
            stroke-linejoin="round" />
    </symbol>

    <symbol id="search" width="24" height="24" viewBox="0 0 24 24" fill="none">
        <path d="M17.5 17.5L22 22" stroke="#fff" stroke-width="1.5" stroke-linecap="round"
            stroke-linejoin="round" />
        <path
            d="M20 11C20 6.02944 15.9706 2 11 2C6.02944 2 2 6.02944 2 11C2 15.9706 6.02944 20 11 20C15.9706 20 20 15.9706 20 11Z"
            stroke="#fff" stroke-width="1.5" stroke-linejoin="round" />
    </symbol>

    <symbol id="plus" width="24" height="24" viewBox="0 0 24 24" fill="none">
        <path d="M12 4V20M20 12H4" stroke="#c3c3c3" stroke-width="1.5" stroke-linecap="round"
            stroke-linejoin="round" />
    </symbol>

    <symbol id="caret-right" width="24" height="24" viewBox="0 0 24 24" fill="none">
        <path d="M9.00005 6C9.00005 6 15 10.4189 15 12C15 13.5812 9 18 9 18" stroke="#fff"
            stroke-width="1.5" stroke-linecap="round" stroke-linejoin="round"></path>
    </symbol>
    <symbol id="caret-left" width="24" height="24" viewBox="0 0 24 24" fill="none">
        <path d="M15 6C15 6 9.00001 10.4189 9 12C8.99999 13.5812 15 18 15 18" stroke="#fff"
            stroke-width="1.5" stroke-linecap="round" stroke-linejoin="round"></path>
    </symbol>
    <symbol id="play-icon" width="24" height="24" viewBox="0 0 24 24" fill="#000000">
        <path
            d="M18.8906 12.846C18.5371 14.189 16.8667 15.138 13.5257 17.0361C10.296 18.8709 8.6812 19.7884 7.37983 19.4196C6.8418 19.2671 6.35159 18.9776 5.95624 18.5787C5 17.6139 5 15.7426 5 12C5 8.2574 5 6.3861 5.95624 5.42132C6.35159 5.02245 6.8418 4.73288 7.37983 4.58042C8.6812 4.21165 10.296 5.12907 13.5257 6.96393C16.8667 8.86197 18.5371 9.811 18.8906 11.154C19.0365 11.7084 19.0365 12.2916 18.8906 12.846Z"
            stroke="#000000" stroke-width="1" stroke-linejoin="round"></path>
    </symbol>
    <symbol id="library-icon" width="24" height="24" viewBox="0 0 24 24" fill="#fff">
        <path
            d="M3 22a1 1 0 0 1-1-1V3a1 1 0 0 1 2 0v18a1 1 0 0 1-1 1zM15.5 2.134A1 1 0 0 0 14 3v18a1 1 0 0 0 1 1h6a1 1 0 0 0 1-1V6.464a1 1 0 0 0-.5-.866l-6-3.464zM9 2a1 1 0 0 0-1 1v18a1 1 0 1 0 2 0V3a1 1 0 0 0-1-1z">
        </path>
    </symbol>
    <symbol id="next" width="24" height="24" viewBox="0 0 24 24" fill="none">
        <path
            d="M15.9351 12.6258C15.6807 13.8374 14.327 14.7077 11.6198 16.4481C8.67528 18.3411 7.20303 19.2876 6.01052 18.9229C5.60662 18.7994 5.23463 18.5823 4.92227 18.2876C4 17.4178 4 15.6118 4 12C4 8.38816 4 6.58224 4.92227 5.71235C5.23463 5.41773 5.60662 5.20057 6.01052 5.07707C7.20304 4.71243 8.67528 5.6589 11.6198 7.55186C14.327 9.29233 15.6807 10.1626 15.9351 11.3742C16.0216 11.7865 16.0216 12.2135 15.9351 12.6258Z"
            stroke="#000000" stroke-width="1.5" stroke-linejoin="round"></path>
        <path d="M20 5V19" stroke="#000000" stroke-width="1.5" stroke-linecap="round"></path>
    </symbol>
    <symbol id="prev" width="24" height="24" viewBox="0 0 24 24" fill="none">
        <path
            d="M8.06492 12.6258C8.31931 13.8374 9.67295 14.7077 12.3802 16.4481C15.3247 18.3411 16.797 19.2876 17.9895 18.9229C18.3934 18.7994 18.7654 18.5823 19.0777 18.2876C20 17.4178 20 15.6118 20 12C20 8.38816 20 6.58224 19.0777 5.71235C18.7654 5.41773 18.3934 5.20057 17.9895 5.07707C16.797 4.71243 15.3247 5.6589 12.3802 7.55186C9.67295 9.29233 8.31931 10.1626 8.06492 11.3742C7.97836 11.7865 7.97836 12.2135 8.06492 12.6258Z"
            stroke="#000000" stroke-width="1.5" stroke-linejoin="round"></path>
        <path d="M4 4L4 20" stroke="#000000" stroke-width="1.5" stroke-linecap="round"></path>
    </symbol>
    <symbol id="play-circle" width="24" height="24" viewBox="0 0 24 24" fill="none">
        <circle cx="12" cy="12" r="10" stroke="#000000" stroke-width="1.5"></circle>
        <path
            d="M15.4531 12.3948C15.3016 13.0215 14.5857 13.4644 13.1539 14.3502C11.7697 15.2064 11.0777 15.6346 10.5199 15.4625C10.2893 15.3913 10.0793 15.2562 9.90982 15.07C9.5 14.6198 9.5 13.7465 9.5 12C9.5 10.2535 9.5 9.38018 9.90982 8.92995C10.0793 8.74381 10.2893 8.60868 10.5199 8.53753C11.0777 8.36544 11.7697 8.79357 13.1539 9.64983C14.5857 10.5356 15.3016 10.9785 15.4531 11.6052C15.5156 11.8639 15.5156 12.1361 15.4531 12.3948Z"
            stroke="#000000" stroke-width="1.5" stroke-linejoin="round"></path>
    </symbol>
    <symbol id="play-circle-white" width="24" height="24" viewBox="0 0 24 24" fill="none">
        <circle cx="12" cy="12" r="10" stroke="#fff" stroke-width="1.5"></circle>
        <path
            d="M15.4531 12.3948C15.3016 13.0215 14.5857 13.4644 13.1539 14.3502C11.7697 15.2064 11.0777 15.6346 10.5199 15.4625C10.2893 15.3913 10.0793 15.2562 9.90982 15.07C9.5 14.6198 9.5 13.7465 9.5 12C9.5 10.2535 9.5 9.38018 9.90982 8.92995C10.0793 8.74381 10.2893 8.60868 10.5199 8.53753C11.0777 8.36544 11.7697 8.79357 13.1539 9.64983C14.5857 10.5356 15.3016 10.9785 15.4531 11.6052C15.5156 11.8639 15.5156 12.1361 15.4531 12.3948Z"
            stroke="#fff" stroke-width="1.5" stroke-linejoin="round"></path>
    </symbol>
    <symbol id="music-note" width="24" height="24" viewBox="0 0 24 24" fill="none">
        <circle cx="6.5" cy="18.5" r="3.5" stroke="#fff" stroke-width="1.5" />
        <circle cx="18" cy="16" r="3" stroke="#fff" stroke-width="1.5" />
        <path
            d="M10 18.5L10 7C10 6.07655 10 5.61483 10.2635 5.32794C10.5269 5.04106 11.0175 4.9992 11.9986 4.91549C16.022 4.57222 18.909 3.26005 20.3553 2.40978C20.6508 2.236 20.7986 2.14912 20.8993 2.20672C21 2.26432 21 2.4315 21 2.76587V16"
            stroke="#fff" stroke-width="1.5" stroke-linecap="round" stroke-linejoin="round" />
        <path d="M10 10C15.8667 10 19.7778 7.66667 21 7" stroke="#fff" stroke-width="1.5"
            stroke-linecap="round" stroke-linejoin="round" />
    </symbol>

</svg>